<svg height="175" viewBox="0 0 431 175" width="431" xmlns="http://www.w3.org/2000/svg"><g fill="none" fill-rule="evenodd"><path d="m-52 0h536v175h-536z"/><path d="m379 70h52a19.05 19.05 0 0 1 -3.029-.585c-1.573-.43-2.594-2.563-4.465-2.563s-1.839 2.1-2.45 1.66c-.61-.442-.814-2.948-2.056-5.357-1.242-2.41-3.088-3.913-5.045-4.635s-4.46-.88-7.508.764-3.977 4.93-5.393 5.116c-1.329.175-1.856-.268-2.638-1.081a34.71 34.71 0 0 1 -.157-.164c-.855-.9-2.29-1.58-4.467-1.054s-4.614 3.133-5.712 4.504c-1.097 1.371-3.357 2.556-4.61 2.81-.834.17-2.325.365-4.47.585z" fill="#f7f7f7"/><g transform="translate(129)"><rect fill="#d8d8d8" height="150.386" rx="1" width="187.104" x=".399"/><path d="m6.28 13.964h175a1 1 0 0 1 1 1v129.588a1 1 0 0 1 -1 1h-175a1 1 0 0 1 -1-1v-129.588a1 1 0 0 1 1-1z" fill="#fff"/><path d="m10 99h46v6h-46z" fill="#c2c2c2"/><path d="m60 99h68v6h-68z" fill="#e9e9e9"/><path d="m48 30h68v6h-68z" fill="#c2c2c2"/><path d="m48 122h68v6h-68z" fill="#e9e9e9"/><path d="m64 133h57v6h-57zm-16-68h68v6h-68zm-26-46h56v6h-56z" fill="#c2c2c2"/><path d="m10 42h68v6h-68zm12 34h56v6h-56z" fill="#e9e9e9"/><path d="m71 53h68v6h-68zm0 34h68v6h-68zm-29 23h68v6h-68z" fill="#c2c2c2"/><path d="m82 19h34v6h-34z" fill="#e9e9e9"/><path d="m82 42h34v6h-34z" fill="#c2c2c2"/><path d="m120 65h34v6h-34z" fill="#e9e9e9"/><path d="m31 65h13v6h-13zm-9-35h22v6h-22zm0 92h22v6h-22z" fill="#c2c2c2"/><path d="m22 133h38v6h-38z" fill="#e9e9e9"/><path d="m82 76h34v6h-34zm61-23h34v6h-34z" fill="#c2c2c2"/><path d="m143 87h34v6h-34z" fill="#e9e9e9"/><path d="m114 110h23v6h-23zm7-91h56v6h-56zm0 23h56v6h-56zm0 34h56v6h-56zm-99-23h44v6h-44zm0 34h44v6h-44zm-12 23h27v6h-27z" fill="#c2c2c2"/></g><path d="m0 84h73a26.528 26.528 0 0 1 -4.252-.828c-2.21-.61-3.642-3.632-6.269-3.632s-2.58 2.976-3.438 2.351c-.857-.625-1.144-4.175-2.887-7.588-1.743-3.414-4.335-5.543-7.083-6.566-2.747-1.024-6.26-1.246-10.54 1.082-4.278 2.328-5.583 6.983-7.571 7.247-1.865.248-2.605-.38-3.703-1.531a48.983 48.983 0 0 1 -.22-.232c-1.2-1.276-3.215-2.239-6.271-1.493-3.056.745-6.478 4.437-8.019 6.38-1.54 1.943-4.713 3.621-6.471 3.982-1.172.24-3.264.516-6.276.828z" fill="#f7f7f7"/><path d="m134.363 173.158 44.063-43.665c10.71 8.545 24.28 13.697 39.036 13.697 34.538 0 62.538-28.007 62.538-62.595 0-34.589-28.04-62.595-62.58-62.595-34.538 0-62.538 28.006-62.538 62.595 0 14.964 5.232 28.66 13.98 39.454l-43.777 43.379a6.691 6.691 0 0 0 -2.085 4.865c0 1.676.613 3.353 1.84 4.62 2.574 2.698 6.825 2.78 9.523.245zm34.637-93.158c0-13.086 5.1-25.397 14.361-34.65 9.262-9.255 21.583-14.35 34.639-14.35 13.097 0 25.418 5.096 34.639 14.35 9.261 9.252 14.361 21.563 14.361 34.65 0 13.086-5.1 25.397-14.361 34.65-9.262 9.255-21.583 14.35-34.639 14.35-13.097 0-25.418-5.096-34.639-14.35-9.261-9.252-14.361-21.563-14.361-34.65z" fill="#375de7" fill-rule="nonzero"/></g></svg>