<svg height="109" viewBox="0 0 448 109" width="448" xmlns="http://www.w3.org/2000/svg">
    <g fill="none" fill-rule="evenodd">
        <path
            d="m372.778 102.947-5.778-5.872 22.706-23.075 22.49 22.858-5.777 5.87-16.713-16.981zm-238.012-6.244h-8.813l-1.843 5.297h-4.11l8.594-22.75h3.547l8.609 22.75h-4.125l-1.86-5.297zm-7.703-3.187h6.593l-3.297-9.438-3.297 9.438zm18.871-8.422.11 1.953c1.25-1.51 2.89-2.266 4.922-2.266 3.52 0 5.312 2.016 5.375 6.047v11.172h-3.797v-10.953c0-1.073-.232-1.867-.696-2.383-.463-.516-1.22-.773-2.273-.773-1.531 0-2.672.692-3.422 2.078v12.031h-3.797v-16.906zm24.576 16.906c-.166-.323-.312-.849-.437-1.578-1.208 1.26-2.688 1.89-4.438 1.89-1.698 0-3.083-.484-4.156-1.453-1.073-.968-1.61-2.166-1.61-3.593 0-1.802.67-3.185 2.009-4.149 1.338-.963 3.252-1.445 5.742-1.445h2.328v-1.11c0-.875-.245-1.575-.734-2.101-.49-.526-1.235-.79-2.235-.79-.864 0-1.573.217-2.125.65-.552.432-.828.981-.828 1.648h-3.797c0-.927.307-1.795.922-2.602s1.45-1.44 2.508-1.898c1.057-.459 2.237-.688 3.539-.688 1.98 0 3.557.498 4.734 1.492 1.177.995 1.781 2.394 1.813 4.196v7.625c0 1.52.213 2.734.64 3.64v.266zm-4.171-2.734c.75 0 1.455-.183 2.117-.547.661-.365 1.159-.854 1.492-1.469v-3.188h-2.048c-1.406 0-2.464.245-3.172.735s-1.062 1.182-1.062 2.078c0 .73.242 1.31.726 1.742.485.432 1.133.649 1.946.649zm15.62 2.734h-3.797v-22h3.797zm10.247-5.438 3.438-11.468h4.047l-6.72 19.469c-1.03 2.843-2.78 4.265-5.25 4.265-.551 0-1.16-.094-1.827-.281v-2.938l.719.047c.958 0 1.68-.174 2.164-.523.484-.35.867-.935 1.148-1.758l.547-1.453-5.938-16.828h4.094l3.578 11.469zm14.622-15.578v4.11h2.984v2.812h-2.984v9.438c0 .646.128 1.112.383 1.398.255.287.71.43 1.367.43.438 0 .88-.052 1.328-.156v2.937c-.864.24-1.698.36-2.5.36-2.916 0-4.375-1.61-4.375-4.829v-9.578h-2.781v-2.812h2.781v-4.11zm10.122 21.016h-3.797v-16.906h3.797zm-4.031-21.297c0-.583.185-1.068.554-1.453.37-.385.899-.578 1.586-.578.688 0 1.22.193 1.594.578.375.385.563.87.563 1.453 0 .573-.188 1.05-.563 1.43s-.906.57-1.594.57c-.687 0-1.216-.19-1.586-.57s-.554-.857-.554-1.43zm15.31 18.578c.947 0 1.733-.276 2.358-.828.626-.552.959-1.234 1-2.047h3.579c-.042 1.052-.37 2.034-.985 2.946-.614.911-1.448 1.632-2.5 2.164a7.45 7.45 0 0 1 -3.406.796c-2.365 0-4.24-.765-5.625-2.296-1.385-1.532-2.078-3.646-2.078-6.344v-.39c0-2.574.687-4.634 2.062-6.18 1.375-1.547 3.25-2.32 5.625-2.32 2.01 0 3.649.585 4.914 1.757 1.266 1.172 1.93 2.711 1.993 4.617h-3.578c-.042-.969-.373-1.765-.993-2.39s-1.409-.938-2.367-.938c-1.229 0-2.177.445-2.844 1.336-.666.89-1.005 2.242-1.015 4.055v.61c0 1.832.33 3.2.992 4.1.661.902 1.617 1.352 2.867 1.352zm19.48-1.875c0-.677-.278-1.192-.836-1.547-.557-.354-1.481-.666-2.773-.937s-2.37-.615-3.234-1.031c-1.896-.917-2.844-2.245-2.844-3.985 0-1.458.614-2.677 1.844-3.656 1.229-.98 2.791-1.469 4.687-1.469 2.021 0 3.654.5 4.899 1.5 1.244 1 1.867 2.297 1.867 3.89h-3.797c0-.728-.271-1.335-.813-1.82-.541-.484-1.26-.726-2.156-.726-.833 0-1.513.193-2.039.578-.526.386-.789.901-.789 1.547 0 .583.245 1.036.734 1.36.49.322 1.48.648 2.97.976 1.489.328 2.658.719 3.507 1.172s1.48.997 1.89 1.633c.412.635.618 1.406.618 2.312 0 1.521-.63 2.753-1.89 3.695-1.261.943-2.912 1.415-4.954 1.415-1.385 0-2.62-.25-3.703-.75s-1.927-1.188-2.531-2.063c-.605-.875-.907-1.818-.907-2.828h3.688c.052.896.39 1.586 1.016 2.07.625.485 1.453.727 2.484.727 1 0 1.76-.19 2.281-.57s.781-.878.781-1.493zm24.885 0c0-.677-.279-1.192-.836-1.547-.557-.354-1.482-.666-2.774-.937-1.291-.271-2.37-.615-3.234-1.031-1.896-.917-2.844-2.245-2.844-3.985 0-1.458.615-2.677 1.844-3.656 1.23-.98 2.792-1.469 4.688-1.469 2.02 0 3.653.5 4.898 1.5s1.867 2.297 1.867 3.89h-3.797c0-.728-.27-1.335-.812-1.82-.542-.484-1.26-.726-2.156-.726-.834 0-1.514.193-2.04.578-.526.386-.789.901-.789 1.547 0 .583.245 1.036.735 1.36.49.322 1.479.648 2.969.976s2.658.719 3.507 1.172c.85.453 1.48.997 1.89 1.633.412.635.618 1.406.618 2.312 0 1.521-.63 2.753-1.89 3.695-1.26.943-2.912 1.415-4.954 1.415-1.385 0-2.62-.25-3.703-.75s-1.927-1.188-2.531-2.063-.906-1.818-.906-2.828h3.687c.052.896.39 1.586 1.016 2.07.625.485 1.453.727 2.484.727 1 0 1.76-.19 2.281-.57s.782-.878.782-1.493zm6.528-4.015c0-1.657.328-3.149.984-4.477.657-1.328 1.578-2.349 2.766-3.062 1.187-.714 2.552-1.07 4.094-1.07 2.28 0 4.132.734 5.554 2.202 1.422 1.47 2.19 3.417 2.305 5.844l.016.89c0 1.667-.32 3.157-.961 4.47-.64 1.312-1.558 2.328-2.75 3.046-1.193.72-2.57 1.079-4.133 1.079-2.386 0-4.294-.795-5.727-2.383-1.432-1.589-2.148-3.706-2.148-6.352zm3.797.328c0 1.74.36 3.101 1.078 4.086.719.984 1.719 1.476 3 1.476s2.279-.5 2.992-1.5c.714-1 1.07-2.463 1.07-4.39 0-1.709-.367-3.063-1.101-4.063-.735-1-1.732-1.5-2.992-1.5-1.24 0-2.224.492-2.954 1.477-.729.984-1.093 2.455-1.093 4.414zm19.371 8.281h-3.797v-24h3.797zm10.293-4.813 3.579-12.093h3.921l-5.858 16.906h-3.297l-5.906-16.906h3.937l3.625 12.094zm17.31 5.126c-2.407 0-4.357-.758-5.852-2.274s-2.242-3.534-2.242-6.055v-.468c0-1.688.326-3.196.977-4.524.65-1.328 1.565-2.362 2.742-3.101 1.177-.74 2.49-1.11 3.937-1.11 2.302 0 4.081.735 5.336 2.203 1.255 1.47 1.883 3.547 1.883 6.235v1.531h-11.047c.115 1.396.58 2.5 1.399 3.313.817.812 1.846 1.218 3.086 1.218 1.74 0 3.156-.703 4.25-2.11l2.046 1.954a6.835 6.835 0 0 1 -2.71 2.352c-1.13.557-2.399.835-3.805.835zm-.453-14.485c-1.042 0-1.883.365-2.524 1.094-.64.729-1.05 1.745-1.226 3.047h7.234v-.281c-.083-1.271-.422-2.232-1.016-2.883-.593-.651-1.416-.977-2.468-.977zm9.668 5.594c0-2.604.605-4.695 1.813-6.274 1.208-1.578 2.828-2.367 4.86-2.367 1.79 0 3.239.625 4.343 1.875v-6.656h3.797v22h-3.438l-.187-1.75c-1.136 1.375-2.651 2.063-4.547 2.063-1.98 0-3.58-.797-4.805-2.391-1.224-1.594-1.836-3.76-1.836-6.5zm3.797.328c0 1.719.331 3.06.992 4.023.662.964 1.602 1.446 2.82 1.446 1.553 0 2.688-.693 3.407-2.078v-7.22c-.698-1.353-1.823-2.03-3.375-2.03-1.23 0-2.177.487-2.844 1.46-.666.975-1 2.44-1 4.399z"
            fill="#375de7" />
        <path
            d="m283.226 66.28c-7.055 0-12.92-2.226-17.426-6.762-4.505-4.537-6.8-10.273-6.8-17.292 0-7.105 2.295-12.84 6.885-17.378 4.59-4.537 10.456-6.848 17.681-6.848 9.18 0 17.426 4.708 21.08 12.327l-7.734 4.366c-2.806-4.88-7.82-8.047-13.261-8.047-4.335 0-7.99 1.455-10.88 4.451s-4.336 6.677-4.336 11.129c0 4.365 1.445 7.96 4.25 10.957 2.806 2.996 6.376 4.451 10.626 4.451 5.44 0 10.965-3.338 13.346-7.875l7.735 4.537c-3.74 7.19-11.986 11.984-21.166 11.984zm39.124-.08h-9.35v-65.2h9.095v24.687c2.72-4.215 8.076-7.054 14.536-7.054 5.015 0 9.265 1.635 12.75 4.99 3.486 3.354 5.186 8.085 5.186 14.364v28.213h-9.35v-25.547c0-8.515-4.42-13.246-10.966-13.246-7.055 0-11.9 5.419-11.9 13.332v25.461zm79.157-40.667v-6.42h9.01v46.14h-9.01v-6.335c-4.166 4.965-9.436 7.448-15.641 7.448-6.545 0-12.07-2.312-16.406-7.02-4.335-4.708-6.46-10.529-6.46-17.463s2.125-12.583 6.46-17.12 9.86-6.763 16.406-6.763c6.205 0 11.475 2.482 15.64 7.533zm33.556-23.533v15.502h11.99v9.82h-11.99v24.868c0 2.352 1.845 4.197 4.233 4.197h7.757v9.821h-7.704c-7.787 0-14.069-6.268-14.069-14.018v-24.867h-7.204v-9.821h7.204v-15.502zm-47.439 25.28c4.335 0 7.82 1.541 10.625 4.537 2.806 2.996 4.166 6.677 4.166 10.957 0 4.366-1.36 8.047-4.166 11.043-2.805 2.996-6.29 4.537-10.625 4.537s-7.904-1.454-10.624-4.451c-2.72-2.996-4.08-6.677-4.08-11.043s1.36-8.047 4.08-11.043 6.29-4.537 10.625-4.537zm-321.455 38.31 1.313 8.416c-2.888 1.227-6.214 1.841-10.066 1.841-8.664 0-16.192-1.594-22.493-8.87h-1.313c-9.278-.088-17.243-3.332-23.807-9.819-6.565-6.575-9.803-14.465-9.803-23.67s3.238-17.095 9.803-23.67c6.564-6.573 14.529-9.818 23.807-9.818 9.277 0 17.155 3.244 23.719 9.819 6.564 6.574 9.803 14.464 9.803 23.67 0 6.925-1.926 13.237-5.777 18.935s-8.927 9.73-15.142 12.186c3.414 2.98 7.44 2.47 11.904 2.47 2.538 0 5.251-.525 8.052-1.49zm-55.666-31.926c0 6.75 2.188 12.36 6.652 16.831s9.978 6.663 16.455 6.663 11.903-2.192 16.367-6.663c4.464-4.47 6.74-10.081 6.74-16.831s-2.276-12.449-6.74-16.92c-4.464-4.558-9.89-6.838-16.367-6.838s-11.991 2.28-16.455 6.838c-4.464 4.471-6.652 10.17-6.652 16.92zm84.65 33.4c-12.604 0-20.656-7.89-20.656-20.514v-27.877h9.628v27.79c0 7.1 4.113 11.66 11.028 11.66 7.002 0 11.028-4.384 11.028-11.66v-27.79h9.715v27.877c0 12.887-7.79 20.514-20.743 20.514zm76.022-25.686c0 1.315-.087 2.893-.35 4.646h-36.848c1.4 7.364 6.564 12.361 15.667 12.361 5.339 0 11.816-2.016 16.017-5.084l4.026 7.1c-4.814 3.595-12.428 6.576-20.393 6.576-17.68 0-25.295-12.361-25.295-24.81 0-7.1 2.188-12.974 6.652-17.62 4.464-4.647 10.328-7.014 17.417-7.014 6.74 0 12.341 2.104 16.63 6.4 4.289 4.295 6.477 10.081 6.477 17.445zm-23.107-15.517c-7.264 0-12.69 4.91-14.091 12.274h27.483c-.788-7.452-6.302-12.274-13.392-12.274zm71.434-7.188 13.829 34.102 12.078-34.102h10.591l-16.482 43.547c-4.201 11.134-9.54 13.78-17.593 13.78-3.326 0-3.951-.701-5.964-2.016l1.4-8.328c2.188.964 2.114 1.49 3.777 1.49 3.85 0 5.688.853 7.783-1.529l-20.535-46.945h11.116zm-18.293-1.228c2.013 0 3.851.263 5.602.79l-.875 9.38c-1.663-.614-3.414-.877-5.164-.877-7.352 0-12.516 5.085-12.516 14.99v24.197h-9.628v-47.252h9.19v6.75c2.8-5.348 7.264-7.978 13.391-7.978z"
            fill="#000" />
    </g>
</svg>