<svg enable-background="new 0 0 90 90" viewBox="0 0 90 90" xmlns="http://www.w3.org/2000/svg">
    <g transform="translate(-13 -13)">
        <path d="m27.9 41.9h36.4v49.9h-26.9l-9.5-9.6z" fill="#e5e7f1" />
        <path d="m31.1 38.7h36.4v49.9h-26.9l-9.5-9.5z" fill="#f9fafa" />
        <path d="m31.1 79.1h9.5v9.5z" fill="#d6daef" />
        <path d="m32.3 79.6 7.8 7.8v-7.8z" fill="none" stroke="#d6daef" />
        <ellipse cx="55.6" cy="48.2" fill="#d6daef" rx="2.4" ry="2.4" />
        <ellipse cx="55.6" cy="56.1" fill="#2f1a93" rx="2.4" ry="2.4" />
        <ellipse cx="55.6" cy="64" fill="#d6daef" rx="2.4" ry="2.4" />
        <ellipse cx="55.6" cy="72" fill="#d6daef" rx="2.4" ry="2.4" />
        <path d="m-14.5 37.2h2.4v2.1l-1.2 1.8-1.2-1.8z" fill="#2f1a93"
            transform="matrix(-1 0 0 1 22.936364 20.583333)" />
        <path d="m61.2 47.4h26.9v2.4h-26.9z" fill="#e5e7f1" />
        <path d="m61.2 55.3h26.9v2.4h-26.9z" fill="#2f1a93" />
        <path d="m61.2 63.2h26.9v2.4h-26.9z" fill="#e5e7f1" />
        <path d="m61.2 71.2h26.9v2.4h-26.9z" fill="#e5e7f1" />
        <path d="m77.4 38.1-2.7 1.4.5-2.9-2.2-2 3-.4 1.4-2.6 1.3 2.6 3 .4-2.1 2 .5 2.9z" fill="#2f0e93" />
        <g fill="none">
            <g stroke="#e5e7f1" stroke-linecap="round" stroke-linejoin="round" stroke-width="1.89"
                transform="translate(52.990909 14.25)">
                <path d="m16.1 14.1h-1.5" />
                <path d="m20.7 14.1h-1.5" />
                <path d="m17.6 11.1v1.5" />
                <path d="m17.6 15.7v1.5" />
            </g>
            <path d="m14.5 11h87v95h-87z" />
        </g>
    </g>
</svg>