<svg enable-background="new 0 0 90.2 90" viewBox="0 0 90.2 90" xmlns="http://www.w3.org/2000/svg"><g transform="translate(-11 -11)"><g transform="translate(11.927273 11.866667)"><path d="m42.6 30.3-5.6 13.6c-.2.5 0 1.1.5 1.3s1.1 0 1.3-.5l5.6-13.7c.2-.5 0-1.1-.5-1.3s-1.1.1-1.3.6z" fill="#57c9c1"/><path d="m33.5 35.5 13.6 5.6c.5.2 1.1 0 1.3-.5s0-1.1-.5-1.3l-13.6-5.6c-.5-.2-1.1 0-1.3.5s0 1.1.5 1.3z" fill="#57c9c1"/><path d="m37 31 5.6 13.6c.2.5.8.7 1.3.5s.7-.8.5-1.3l-5.6-13.6c-.2-.5-.8-.7-1.3-.5-.5.3-.7.8-.5 1.3z" fill="#57c9c1"/><path d="m47.1 33.7-13.6 5.6c-.5.2-.7.8-.5 1.3s.8.7 1.3.5l13.6-5.6c.5-.2.7-.8.5-1.3-.2-.4-.8-.7-1.3-.5z" fill="#57c9c1"/><path d="m66.3 25.8-13.6 5.6c-.5.2-.7.8-.5 1.3s.8.7 1.3.5l13.6-5.6c.5-.2.7-.8.5-1.3-.2-.4-.8-.7-1.3-.5z" fill="#57c9c1"/><path d="m50.6 11.2-5.6 13.6c-.2.5 0 1.1.5 1.3s1.1 0 1.3-.5l5.6-13.6c.2-.5 0-1.1-.5-1.3-.6-.2-1.1 0-1.3.5z" fill="#57c9c1"/><path d="m29 12 5.6 13.6c.2.5.8.7 1.3.5s.7-.8.5-1.3l-5.6-13.6c-.2-.5-.8-.7-1.3-.5-.4.2-.7.8-.5 1.3z" fill="#57c9c1"/><path d="m14.3 27.6 13.7 5.7c.5.2 1.1 0 1.3-.5s0-1.1-.5-1.3l-13.6-5.6c-.5-.2-1.1 0-1.3.5s-.1 1 .4 1.2z" fill="#57c9c1"/><path d="m15.1 49.1 13.6-5.6c.5-.2.7-.8.5-1.3s-.8-.7-1.3-.5l-13.6 5.6c-.5.2-.7.8-.5 1.3.2.4.8.7 1.3.5z" fill="#57c9c1"/><path d="m30.8 63.7 5.6-13.6c.2-.5 0-1.1-.5-1.3s-1.1 0-1.3.5l-5.6 13.6c-.2.5 0 1.1.5 1.3.6.2 1.1 0 1.3-.5z" fill="#57c9c1"/><path d="m52.4 62.9-5.6-13.6c-.2-.5-.8-.7-1.3-.5s-.7.8-.5 1.3l5.6 13.6c.2.5.8.7 1.3.5s.7-.8.5-1.3z" fill="#57c9c1"/><path d="m67.1 47.3-13.6-5.6c-.5-.2-1.1 0-1.3.5s0 1.1.5 1.3l13.6 5.6c.5.2 1.1 0 1.3-.5.2-.6 0-1.1-.5-1.3z" fill="#57c9c1"/><g fill="#4028cc"><path d="m48.9 27.9-1.7 1.7c-.4.4-.4 1 0 1.4s1 .4 1.4 0l1.7-1.7c.4-.4.4-1 0-1.4s-1-.4-1.4 0z"/><path d="m54.8 22-1.7 1.7c-.4.4-.4 1 0 1.4s1 .4 1.4 0l1.7-1.7c.4-.4.4-1 0-1.4-.3-.4-1-.4-1.4 0z"/><path d="m39.2 24.9v2.4c0 .5.4 1 1 1 .5 0 1-.4 1-1v-2.4c0-.5-.4-1-1-1-.6.1-1 .5-1 1z"/><path d="m39.2 16.6v2.4c0 .5.4 1 1 1 .5 0 1-.4 1-1v-2.4c0-.5-.4-1-1-1s-1 .4-1 1z"/><path d="m31.1 29.3 1.7 1.7c.4.4 1 .4 1.4 0s.4-1 0-1.4l-1.7-1.7c-.4-.4-1-.4-1.4 0s-.4 1 0 1.4z"/><path d="m25.2 23.4 1.7 1.7c.4.4 1 .4 1.4 0s.4-1 0-1.4l-1.7-1.7c-.4-.4-1-.4-1.4 0s-.4 1 0 1.4z"/><path d="m28.1 37.9h2.4c.5 0 1-.4 1-1s-.4-1-1-1h-2.4c-.5 0-1 .4-1 1s.5 1 1 1z"/><path d="m19.7 37.9h2.4c.5 0 1-.4 1-1s-.4-1-1-1h-2.4c-.5 0-1 .4-1 1s.5 1 1 1z"/><path d="m32.5 47 1.7-1.7c.4-.4.4-1 0-1.4s-1-.4-1.4 0l-1.7 1.7c-.4.4-.4 1 0 1.4s1 .4 1.4 0z"/><path d="m26.6 52.9 1.7-1.7c.4-.4.4-1 0-1.4s-1-.4-1.4 0l-1.7 1.7c-.4.4-.4 1 0 1.4s1 .4 1.4 0z"/><path d="m41.2 50v-2.4c0-.5-.4-1-1-1-.5 0-1 .4-1 1v2.4c0 .5.4 1 1 1 .5-.1 1-.5 1-1z"/><path d="m41.2 58.3v-2.4c0-.5-.4-1-1-1-.5 0-1 .4-1 1v2.4c0 .5.4 1 1 1 .5 0 1-.4 1-1z"/><path d="m50.3 45.6-1.7-1.7c-.4-.4-1-.4-1.4 0s-.4 1 0 1.4l1.7 1.7c.4.4 1 .4 1.4 0s.4-1 0-1.4z"/><path d="m56.2 51.5-1.7-1.7c-.4-.4-1-.4-1.4 0s-.4 1 0 1.4l1.7 1.7c.4.4 1 .4 1.4 0s.4-1 0-1.4z"/><path d="m53.3 35.9h-2.4c-.5 0-1 .4-1 1s.4 1 1 1h2.4c.5 0 1-.4 1-1s-.5-1-1-1z"/><path d="m61.7 35.9h-2.4c-.5 0-1 .4-1 1s.4 1 1 1h2.4c.5 0 1-.4 1-1s-.5-1-1-1z"/></g></g><ellipse cx="58.118182" cy="62.183333" fill="#4229cc" rx="13.1" ry="13"/><ellipse cx="58.218182" cy="62.283333" fill="none" rx="11.4" ry="11.4" stroke="#2f1a93" stroke-width="4.6946"/><ellipse cx="58.2" cy="87.2" fill="#e5e7f1" rx="13.8" ry="2.2"/><path d="m56.1 64.2-2.4-2.7-1.8 1.8 4.2 4.1 8.9-8.9-1.8-1.8z" fill="#fff"/><g fill="#e5e7f1" transform="translate(57.4 11.866667)"><path d="m16.2 13.7h-1.4c-.4 0-.7.3-.7.7s.3.7.7.7h1.4c.4 0 .7-.3.7-.7s-.4-.7-.7-.7z"/><path d="m20.5 13.7h-1.5c-.4 0-.7.3-.7.7s.3.7.7.7h1.4c.4 0 .7-.3.7-.7.1-.4-.3-.7-.6-.7z"/><path d="m16.8 11.6v1.4c0 .4.3.7.7.7s.7-.3.7-.7v-1.4c0-.4-.3-.7-.7-.7s-.7.3-.7.7z"/><path d="m16.8 15.9v1.4c0 .4.3.7.7.7s.7-.3.7-.7v-1.4c0-.4-.3-.7-.7-.7s-.7.3-.7.7z"/></g><g fill="#e5e7f1" transform="translate(64.854545 17.8)"><path d="m16.2 13.7h-1.4c-.4 0-.7.3-.7.7s.3.7.7.7h1.4c.4 0 .7-.3.7-.7s-.4-.7-.7-.7z"/><path d="m20.5 13.7h-1.5c-.4 0-.7.3-.7.7s.3.7.7.7h1.4c.4 0 .7-.3.7-.7.1-.4-.3-.7-.6-.7z"/><path d="m16.8 11.6v1.4c0 .4.3.7.7.7s.7-.3.7-.7v-1.4c0-.4-.3-.7-.7-.7s-.7.3-.7.7z"/><path d="m16.8 15.9v1.4c0 .4.3.7.7.7s.7-.3.7-.7v-1.4c0-.4-.3-.7-.7-.7s-.7.3-.7.7z"/></g><path d="m14.6 11.5h82v89h-82z" fill="none"/></g></svg>