<svg enable-background="new 0 0 90 90" viewBox="0 0 90 90" xmlns="http://www.w3.org/2000/svg" xmlns:xlink="http://www.w3.org/1999/xlink"><mask id="a" height="12.8" maskUnits="userSpaceOnUse" width="11.8" x="7.4" y="16.9"><path d="m13.5 33.2c5.5 0 9.9-4.4 9.9-9.8s-4.4-9.8-9.9-9.8z" fill="#fff"/></mask><g transform="translate(-7 -11)"><ellipse cx="35.2" cy="84.9" fill="#e5e7f1" rx="14" ry="2.1"/><g transform="translate(21 21.7)"><path d="m13.5 13.5h32.3v28.7h-32.3z" fill="#d6daef"/><path d="m30.2 22.6 15.6-9.1v24.9h-15.6z" fill="#fff"/><path d="m30.2 22.6h32.3v28.7h-32.3z" fill="#d6daef"/><path d="m55.1 32.5c0 .5.2.9.5 1.2s.7.5 1.1.6v-3c-.4-.1-.8-.2-1-.3-.3-.1-.5-.3-.7-.4s-.3-.4-.4-.6-.1-.5-.1-.9c0-.3.1-.7.2-.9.1-.3.3-.5.5-.7s.5-.4.7-.5c.3-.1.6-.2.9-.2v-.8h.6v.8c.6.1 1.1.3 1.5.7s.6.9.8 1.6h-1c-.2-.7-.6-1.2-1.3-1.3v2.8l.7.2c.2 0 .3.1.5.2s.4.2.6.4.4.4.5.6.2.5.2.9-.1.7-.2 1-.3.5-.5.7-.5.4-.8.5-.6.2-1 .2v.9h-.6v-.9c-.8-.1-1.4-.3-1.8-.8s-.7-1.1-.8-1.9h.9zm2.2 1.8c.2 0 .4-.1.6-.1.2-.1.3-.1.5-.3.1-.1.2-.3.3-.4.1-.2.1-.4.1-.6s0-.4-.1-.5-.2-.3-.3-.4-.3-.2-.5-.3-.4-.1-.6-.2zm-.6-6.7c-.4 0-.7.2-.9.4-.3.2-.4.5-.4 1 0 .2 0 .4.1.5s.2.3.3.4.3.2.4.2c.2.1.3.1.5.2z" fill="#fff"/><path d="m16.7 22.3c0 .5.2.9.5 1.2s.7.5 1.1.6v-3c-.4-.1-.8-.2-1-.3-.3-.1-.5-.3-.7-.4-.2-.2-.3-.4-.4-.6s-.1-.5-.1-.9c0-.3.1-.7.2-.9.1-.3.3-.5.5-.7s.5-.4.7-.5c.3-.1.6-.2.9-.2v-.7h.6v.8c.6.1 1.1.3 1.5.7s.6.9.8 1.6h-1c-.2-.7-.6-1.2-1.3-1.3v2.8l.7.2c.2 0 .3.1.5.2s.4.2.6.4.4.4.5.6.2.5.2.9-.1.7-.2 1-.3.5-.5.7-.5.4-.8.5-.6.2-1 .2v.9h-.6v-1.1c-.8-.1-1.4-.3-1.8-.8s-.7-1.1-.8-1.9zm2.3 1.8c.2 0 .4-.1.6-.1s.3-.1.5-.3c.1-.1.2-.3.3-.4.1-.2.1-.4.1-.6s0-.4-.1-.5-.2-.3-.3-.4-.3-.2-.5-.3-.4-.1-.6-.2zm-.6-6.7c-.4 0-.7.2-.9.4-.3.2-.4.5-.4 1 0 .2 0 .4.1.5s.2.3.3.4.3.2.4.2.3.1.5.2z" fill="#fff"/><g transform="translate(16.713178 13.608)"><path d="m13.5 33.2c5.5 0 9.9-4.4 9.9-9.8s-4.4-9.8-9.9-9.8z" fill="#fff"/><path d="m7.4 21.9c.2-2.7 2.4-4.9 5.1-5 2.8-.1 5.2 1.8 5.6 4.5l1 3.3c.1.2-.1.4-.3.4h-1.4v2c0 .3-.2.5-.5.5h-1.1v2.1h-5.6v-2.2c0-.3-.2-.7-.4-.9-1.6-1-2.5-2.7-2.4-4.7" fill="#2f1a93" mask="url(#a)"/></g></g><g transform="translate(7.7 38.5)"><ellipse cx="27" cy="27" fill="#4229cc" rx="13" ry="13"/><ellipse cx="27.2" cy="27.1" fill="none" rx="11.2" ry="11.2" stroke="#2f1a93" stroke-width="4.9417"/><path d="m25 28.4c0 .4.1.7.2 1s.3.5.5.7.5.3.8.4.6.1 1 .1.7 0 1-.1.5-.2.7-.3.3-.3.4-.5.1-.4.1-.5c0-.4-.1-.7-.3-.8-.2-.2-.4-.3-.6-.4-.4-.1-.8-.3-1.2-.4s-1-.3-1.7-.4c-.4-.1-.8-.3-1.1-.4s-.5-.4-.7-.6-.3-.5-.4-.7-.1-.5-.1-.8c0-.5.1-.9.3-1.3s.5-.7.8-.9.7-.4 1.2-.5.9-.2 1.3-.2c.5 0 1 .1 1.5.2s.9.3 1.2.6.6.6.8 1 .3.8.3 1.4h-1.7c0-.6-.3-1.1-.7-1.3-.4-.3-.9-.4-1.5-.4-.2 0-.4 0-.6.1-.2 0-.4.1-.6.2s-.3.2-.4.4-.2.4-.2.6c0 .4.1.6.3.8s.5.3.9.4c0 0 .2 0 .4.1.3.1.5.1.9.2.3.1.6.2.9.2.3.1.5.1.6.2.3.1.6.2.8.4l.6.6c.2.2.3.5.4.7.1.3.1.5.1.8 0 .6-.1 1-.3 1.4s-.5.7-.9 1c-.4.2-.8.4-1.3.5s-1 .2-1.4.2c-.6 0-1.1-.1-1.6-.2s-.9-.4-1.3-.6-.7-.7-.9-1.1-.3-1-.3-1.6h1.8z" fill="#fff"/></g><g fill="#2f1a93" transform="matrix(-1 0 0 1 63.7 11.09322)"><path d="m-4.1 13.5c.6 0 1.1.5 1.1 1v3.5c0 .6-.5 1.1-1.1 1.1-.6 0-1.1-.5-1.1-1.1v-3.5c.1-.5.6-1 1.1-1z"/><path d="m-11.2 15.6c.4-.4 1.1-.4 1.5 0l2.5 2.5c.4.4.4 1.1 0 1.5-.4.4-1.1.4-1.5 0l-2.5-2.5c-.4-.4-.4-1 0-1.5z"/><path d="m-12.4 21.9h3.5c.6 0 1 .5 1 1 0 .6-.5 1.1-1 1.1h-3.5c-.6 0-1.1-.5-1.1-1.1 0-.5.5-1 1.1-1z"/></g><path d="m13.5 13.5h77v84h-77z" fill="none"/></g></svg>