<svg enable-background="new 0 0 122 122" viewBox="0 0 122 122" xmlns="http://www.w3.org/2000/svg"><g transform=""><g transform="translate(0 4)"><path d="m35.9 74.3c-27.5 8.4-28.5 12.2-31.3 14.6-1.6 1.4-3 4.5-4.1 8.6-.4 1.3 91.4 1.7 90.5-.1-1.1-2.2-3.1-5.6-3.9-6.6-3.4-4.1-9-8.7-29.3-15.6z" fill="#f9fafa"/><path d="m35.1 70.1v7.4c6 6.4 15.9 6.6 21.9 0v-6.4l-4-15.9c0-12.1-17.9-12.1-17.9 0z" fill="#fff"/><path d="m46.2 96.7h2v-15.6h-2z" fill="#e5e7f1"/><path d="m34.8 69.4-1.3 5.7 6.4 13.6 7.5-7.7z" fill="#e5e7f1"/><path d="m35.3 61.1-.4 1.5s9.6 9 14.9 9.2 10.6-6.1 10.6-6.1l-1.3-1.3z" fill="#d6daef"/><path d="m57.5 70.8 1.5 4.9-4.8 12.7-7.3-7.4z" fill="#e5e7f1"/><g transform="matrix(.99939083 -.0348995 .0348995 .99939083 22.202008 1.816592)"><path d="m33.5 68.6c6.8-1.3 9.6-19.6 10.3-25.4s-.7-19.5-4.5-19.2c-23.5 1.9-27.2-6.6-30.2-4.6-3.5 2.4-5.6 14.2-5.5 22.3s-2.6-.9.8 6.6c.2.4.7.5.9 1.1s.7 7.1 2.9 10.5c2.3 3.3 16.6 10.3 25.3 8.7z" fill="#fff"/><path d="m33.5 68.8c6.8-1.3 9.1-18.1 9.8-23.9s1.7-29-19.3-30.7c-19.6-1.6-20.2 20.6-20.2 28.7.1 8.1 2.3 14.1 4.6 17.5 2.3 3.3 16.5 10 25.1 8.4z" fill="#fff"/><g fill="#d6daef"><path d="m26.2 52.8c4.1 1.6 6.7 1.4 7.7-.4 1-1.9-.7-6.5-5.2-13.9v.2c-.1.8.3 2.5 1.1 5.1.9 2.9 1.9 5.7 3.1 8.3z"/><path d="m32.3 59c-.3-.2-2.6-.1-5.1-.1s-5.9-.2-6-.2c.2.3 7.5 2.7 10.2 2.2 1.2-.3 1.5-1.5.9-1.9z"/><path d="m44.5 22.2c4.1 5.1-1.9 28.6-1.9 28.4s.2-3.3.5-7.4c.3-4 .9-4 .6-5.5-.9-5.4-3.5-10.4-7.8-11.6-6.1-2.3-10.4-.6-16.2 1.8-2.2.9-4.7 2-7.1 1.8-1-.1-1.8-.8-1.9-1.7-.7 2-.8 19.3-1.8 18.8-.4-.2-5-6-6.5-12s-2.3-19.3 6.1-20.1c11.5-10.5 32.6 3.3 36 7.5z"/></g><path d="m4.9 49.9c-2.5 0-5.2-4.4-5.2-7.1 0-2.8 2.1-4.8 4.6-4.8s4.1 2.4 4.1 5.2c-.1 2.8-1 6.7-3.5 6.7z" fill="#fff"/><path d="m20.8 37c-3-.3-7.1-.2-7.8 0-1 .3-1 .3-1.1 1s0 1.3.5 1.5c.7.3.7 1.2.9 4 .2 2.5 1.2 4.5 5.9 5.1.2 0 .5.1.7.1l.1-.7c-2.2-.1-4.6-1-5.3-2.6-1-2.2-1-6.6.7-7.5.7-.4 3-.5 5.4-.3zm9.1 1.9c-1.1 0-5.3-1.4-8.4-1.8-.2 0-.4-.1-.7-.1l-.1.7c2.5.2 5.1.9 5.9 2.2 1.4 2.1-1.5 6.8-3.9 7.8-.7.3-1.7.4-2.7.4v.7c4.1.2 5.8-2.4 6.4-3.3 1.1-1.7 1-4 3.3-3.9 2.4.1 1.9 2.4 2.7 4.2.4.9 1.6 3.9 5.9 4v-.7c-1.1 0-2.1-.3-2.8-.6-2.2-1.2-4.3-6.2-2.6-8.1 1-1.2 3.6-1.6 6.1-1.6l.1-.7c-.2 0-.4 0-.6 0-2.7-.1-6.1.8-8.6.8zm8.4 10.8h.5c4.8-.1 6.1-2 6.8-4.5.7-2.7.8-3.7 1.6-3.9.6-.2.7-.8.8-1.5 0-.7 0-.8-.9-1.1-.7-.3-4.8-.8-7.9-.8l-.1.7c2.4 0 4.7.4 5.4.8 1.5 1 .8 5.4-.6 7.5-1 1.5-3.4 2.1-5.5 2z" fill="#54c9c1"/></g></g><path d="m12 102h110v2h-110z" fill="#4229cc"/><path d="m32.7 96.3-7.9 4.8 2.2-8.9-7-6 9.1-.7 3.6-8.5 3.5 8.5 9.1.7-6.9 6 2.1 8.9z" fill="#4229cc"/><ellipse cx="32.5" cy="109" fill="#e5e7f1" rx="12.5" ry="3"/><path d="m74.3 16.8-2.7 1.3.5-2.9-2.1-2.1 3-.4 1.3-2.7 1.3 2.7 3 .4-2.2 2.1.5 2.9z" fill="#2f0e93"/><g fill="none" stroke="#e5e7f1" stroke-linecap="round" stroke-linejoin="round" stroke-width="1.89" transform="translate(106 2)"><path d="m2.1 13.9h-2"/><path d="m7.8 13.9h-1.9"/><path d="m3.9 10.1v1.9"/><path d="m3.9 15.9v1.9"/></g><path d="m86 31h25v18h-19l-6 5z" fill="#e5e7f1"/><path d="m83 26h25v18h-19l-6 5z" fill="#4229cc"/><g fill="#fff"><circle cx="89" cy="35" r="2"/><circle cx="95" cy="35" r="2"/><circle cx="101" cy="35" r="2"/></g></g></svg>