<svg enable-background="new 0 0 90 90" viewBox="0 0 90 90" xmlns="http://www.w3.org/2000/svg"><g transform="translate(-2 1)"><path d="m37.3 24.7h19.3v22.1h-19.3z" fill="#54c9c1"/><path d="m63.9 26.5h25.7v23.9h-25.7z" fill="#fff"/><path d="m40.2 24.7v9.2l1.6-.1h.3c2.6 0 4.7 2.1 4.7 4.6 0 2.6-2.1 4.6-4.7 4.6-.1 0-.2 0-.3 0h-1.6v9.2h49.5v-27.5zm18.1 22.7h-2.9v-1.9h2.9zm0-3.9h-2.9v-1.9h2.9zm0-4.3h-2.9v-1.9h2.9zm0-3.9h-2.9v-1.9h2.9zm0-4.3h-2.9v-2h2.9zm21.8 16.4-6.1-3.2-6.1 3.1 1.2-6.6-4.9-4.7 6.8-1 3-6 3 6 6.8 1-4.9 4.7z" fill="#d6daef"/><path d="m63.3 49.9-25.2 12.3-25.3-12.3v-1.1l25.3-12.3 25.3 12.3v1.1zm-41.7 6.3 16.4 8.1 16.4-8.1v7.3.1l-15.1 7.4h-2.5l-15.2-7.4zm38.5 10.7 1.2 4-1.9 2.6h-.6l-1.8-2.6 1.3-4v-13.1l1.9-1v14.1z" fill="#4229cc"/><g fill="#ccd1ed" transform="matrix(.70710678 -.70710678 .70710678 .70710678 .369829 33.421328)"><path d="m-1.9 12c.4 0 .8.4.8.8v2.8c0 .4-.4.8-.8.8-.4 0-.8-.4-.8-.8v-2.8c0-.4.3-.8.8-.8z"/><path d="m-7.9 13.5c.3-.3.8-.3 1.1 0l2 2c.3.3.3.8 0 1.1-.3.3-.8.3-1.1 0l-2-2c-.3-.3-.3-.8 0-1.1z"/><path d="m-9.1 19.2h2.8c.4 0 .8.4.8.8 0 .4-.4.8-.8.8h-2.8c-.4 0-.8-.4-.8-.8 0-.4.4-.8.8-.8z"/></g><path d="m83.7 24.4-2.6 1.5.7-2.8-2.3-1.9 3.1-.2 1.1-2.7 1.2 2.7 3.1.2-2.4 1.9.8 2.8z" fill="#2f1a93"/><g fill="none" stroke="#ff35bb" stroke-linecap="round" stroke-linejoin="round" stroke-width="1.7628" transform="translate(68.814433)"><path d="m3.2 18.9h-1.6"/><path d="m8.2 18.9h-1.7"/><path d="m4.8 15.6v1.7"/><path d="m4.8 20.5v1.7"/></g></g></svg>